G04 #@! TF.GenerationSoftware,KiCad,Pcbnew,8.0.5*
G04 #@! TF.CreationDate,2024-10-05T21:15:00+02:00*
G04 #@! TF.ProjectId,XC9148-breakout,58433931-3438-42d6-9272-65616b6f7574,rev?*
G04 #@! TF.SameCoordinates,Original*
G04 #@! TF.FileFunction,Copper,L1,Top*
G04 #@! TF.FilePolarity,Positive*
%FSLAX46Y46*%
G04 Gerber Fmt 4.6, Leading zero omitted, Abs format (unit mm)*
G04 Created by KiCad (PCBNEW 8.0.5) date 2024-10-05 21:15:00*
%MOMM*%
%LPD*%
G01*
G04 APERTURE LIST*
G04 Aperture macros list*
%AMRoundRect*
0 Rectangle with rounded corners*
0 $1 Rounding radius*
0 $2 $3 $4 $5 $6 $7 $8 $9 X,Y pos of 4 corners*
0 Add a 4 corners polygon primitive as box body*
4,1,4,$2,$3,$4,$5,$6,$7,$8,$9,$2,$3,0*
0 Add four circle primitives for the rounded corners*
1,1,$1+$1,$2,$3*
1,1,$1+$1,$4,$5*
1,1,$1+$1,$6,$7*
1,1,$1+$1,$8,$9*
0 Add four rect primitives between the rounded corners*
20,1,$1+$1,$2,$3,$4,$5,0*
20,1,$1+$1,$4,$5,$6,$7,0*
20,1,$1+$1,$6,$7,$8,$9,0*
20,1,$1+$1,$8,$9,$2,$3,0*%
G04 Aperture macros list end*
G04 #@! TA.AperFunction,Conductor*
%ADD10C,0.100000*%
G04 #@! TD*
G04 #@! TA.AperFunction,Conductor*
%ADD11C,0.001000*%
G04 #@! TD*
G04 #@! TA.AperFunction,SMDPad,CuDef*
%ADD12R,0.350000X0.850000*%
G04 #@! TD*
G04 #@! TA.AperFunction,SMDPad,CuDef*
%ADD13R,0.250000X0.850000*%
G04 #@! TD*
G04 #@! TA.AperFunction,SMDPad,CuDef*
%ADD14R,1.600000X1.000000*%
G04 #@! TD*
G04 #@! TA.AperFunction,SMDPad,CuDef*
%ADD15R,0.100000X0.900000*%
G04 #@! TD*
G04 #@! TA.AperFunction,SMDPad,CuDef*
%ADD16R,0.800000X0.900000*%
G04 #@! TD*
G04 #@! TA.AperFunction,SMDPad,CuDef*
%ADD17RoundRect,0.250001X0.462499X0.849999X-0.462499X0.849999X-0.462499X-0.849999X0.462499X-0.849999X0*%
G04 #@! TD*
G04 #@! TA.AperFunction,SMDPad,CuDef*
%ADD18RoundRect,0.237500X0.237500X-0.300000X0.237500X0.300000X-0.237500X0.300000X-0.237500X-0.300000X0*%
G04 #@! TD*
G04 #@! TA.AperFunction,ComponentPad*
%ADD19C,1.700000*%
G04 #@! TD*
G04 #@! TA.AperFunction,ComponentPad*
%ADD20R,1.700000X1.700000*%
G04 #@! TD*
G04 #@! TA.AperFunction,SMDPad,CuDef*
%ADD21RoundRect,0.237500X-0.300000X-0.237500X0.300000X-0.237500X0.300000X0.237500X-0.300000X0.237500X0*%
G04 #@! TD*
G04 #@! TA.AperFunction,ComponentPad*
%ADD22O,1.700000X1.700000*%
G04 #@! TD*
G04 #@! TA.AperFunction,ViaPad*
%ADD23C,0.600000*%
G04 #@! TD*
G04 #@! TA.AperFunction,Conductor*
%ADD24C,0.350000*%
G04 #@! TD*
G04 #@! TA.AperFunction,Conductor*
%ADD25C,0.200000*%
G04 #@! TD*
G04 #@! TA.AperFunction,Conductor*
%ADD26C,0.500000*%
G04 #@! TD*
G04 #@! TA.AperFunction,Conductor*
%ADD27C,0.600000*%
G04 #@! TD*
G04 #@! TA.AperFunction,Conductor*
%ADD28C,0.400000*%
G04 #@! TD*
G04 #@! TA.AperFunction,Conductor*
%ADD29C,0.250000*%
G04 #@! TD*
G04 APERTURE END LIST*
D10*
X102382299Y-60492935D02*
X102246530Y-59762059D01*
X101750000Y-58801557D01*
X102500000Y-58800889D01*
X102382299Y-60492935D01*
G04 #@! TA.AperFunction,Conductor*
G36*
X102382299Y-60492935D02*
G01*
X102246530Y-59762059D01*
X101750000Y-58801557D01*
X102500000Y-58800889D01*
X102382299Y-60492935D01*
G37*
G04 #@! TD.AperFunction*
D11*
X104180000Y-62210000D02*
X104110000Y-63260000D01*
X102322272Y-62890037D01*
X102329380Y-62045175D01*
X104180000Y-62210000D01*
G04 #@! TA.AperFunction,Conductor*
G36*
X104180000Y-62210000D02*
G01*
X104110000Y-63260000D01*
X102322272Y-62890037D01*
X102329380Y-62045175D01*
X104180000Y-62210000D01*
G37*
G04 #@! TD.AperFunction*
D12*
X102260000Y-60120000D03*
D13*
X101710000Y-60120000D03*
X101210000Y-60120000D03*
X101210000Y-62470000D03*
X101710000Y-62470000D03*
X102210000Y-62470000D03*
D14*
X101710000Y-61295000D03*
D15*
X102560000Y-61295000D03*
D16*
X100860000Y-61295000D03*
D17*
X101120000Y-64930000D03*
X98795000Y-64930000D03*
D18*
X105940000Y-62745000D03*
X105940000Y-61020000D03*
D19*
X117410000Y-57280000D03*
D20*
X117410000Y-54740000D03*
D21*
X97207500Y-62790000D03*
X98932500Y-62790000D03*
D18*
X104420000Y-62740000D03*
X104420000Y-61015000D03*
D19*
X117410000Y-66630000D03*
D20*
X117410000Y-64090000D03*
D22*
X117410000Y-61550000D03*
D23*
X99750000Y-61290000D03*
X97030000Y-61660000D03*
X111220000Y-65210000D03*
X97030000Y-64690000D03*
X100340000Y-60280000D03*
D24*
X102260000Y-60045000D02*
X102260000Y-59010000D01*
D25*
X102260000Y-59010000D02*
X102250000Y-59000000D01*
D26*
X98932500Y-62790000D02*
X98932500Y-59817500D01*
X99750000Y-59000000D02*
X102250000Y-59000000D01*
X98932500Y-59817500D02*
X99750000Y-59000000D01*
D27*
X99750000Y-61290000D02*
X101705000Y-61290000D01*
X98795000Y-64930000D02*
X98795000Y-62927500D01*
D25*
X98795000Y-62927500D02*
X98932500Y-62790000D01*
D26*
X100350000Y-67530000D02*
X116510000Y-67530000D01*
D25*
X102290000Y-60290000D02*
X102260000Y-60320000D01*
D26*
X116510000Y-67530000D02*
X117410000Y-66630000D01*
D28*
X98795000Y-64930000D02*
X98795000Y-65975000D01*
X117380000Y-66630000D02*
X117310000Y-66700000D01*
D25*
X99000000Y-64725000D02*
X98795000Y-64930000D01*
D26*
X98795000Y-65975000D02*
X100350000Y-67530000D01*
D28*
X117410000Y-66630000D02*
X117380000Y-66630000D01*
D26*
X97030000Y-62967500D02*
X97207500Y-62790000D01*
X97030000Y-64690000D02*
X97030000Y-62967500D01*
D25*
X97030000Y-62612500D02*
X97207500Y-62790000D01*
D28*
X105935000Y-61015000D02*
X105940000Y-61020000D01*
D25*
X101210000Y-61795000D02*
X101710000Y-61295000D01*
D26*
X112340000Y-64090000D02*
X117410000Y-64090000D01*
D28*
X108000000Y-54740000D02*
X117410000Y-54740000D01*
D26*
X102472500Y-61090000D02*
X104335000Y-61090000D01*
X111220000Y-65210000D02*
X112340000Y-64090000D01*
D28*
X107170000Y-55570000D02*
X108000000Y-54740000D01*
X106900000Y-61020000D02*
X107170000Y-60750000D01*
X107170000Y-60750000D02*
X107170000Y-55570000D01*
X104335000Y-61100000D02*
X104420000Y-61015000D01*
D29*
X101210000Y-62270000D02*
X101210000Y-61795000D01*
D25*
X101705000Y-61290000D02*
X101710000Y-61295000D01*
X101705000Y-61300000D02*
X101710000Y-61295000D01*
D26*
X104420000Y-61015000D02*
X105935000Y-61015000D01*
D28*
X105940000Y-61020000D02*
X106900000Y-61020000D01*
D29*
X101710000Y-60320000D02*
X101710000Y-61295000D01*
D26*
X97030000Y-61660000D02*
X97030000Y-62612500D01*
D28*
X109540000Y-57270000D02*
X109550000Y-57280000D01*
X109550000Y-57280000D02*
X117410000Y-57280000D01*
D27*
X104420000Y-62740000D02*
X105935000Y-62740000D01*
D28*
X108860000Y-61550000D02*
X108860000Y-57950000D01*
X105940000Y-62745000D02*
X107665000Y-62745000D01*
X107665000Y-62745000D02*
X108860000Y-61550000D01*
D25*
X105935000Y-62740000D02*
X105940000Y-62745000D01*
D28*
X108860000Y-57950000D02*
X109540000Y-57270000D01*
D25*
X101710000Y-64335000D02*
X101115000Y-64930000D01*
D29*
X101710000Y-62270000D02*
X101710000Y-64335000D01*
D25*
X100380000Y-60320000D02*
X100340000Y-60280000D01*
X101210000Y-60320000D02*
X100380000Y-60320000D01*
G04 #@! TA.AperFunction,Conductor*
G36*
X101831557Y-63161225D02*
G01*
X101834984Y-63169498D01*
X101834984Y-63169513D01*
X101832517Y-65032695D01*
X101829079Y-65040964D01*
X101820802Y-65044380D01*
X101818946Y-65044229D01*
X101126877Y-64932114D01*
X101119258Y-64927409D01*
X101117704Y-64924427D01*
X100738177Y-63837861D01*
X100738684Y-63828924D01*
X100741961Y-63824832D01*
X101581809Y-63160323D01*
X101589069Y-63157798D01*
X101823284Y-63157798D01*
X101831557Y-63161225D01*
G37*
G04 #@! TD.AperFunction*
M02*
