%TF.GenerationSoftware,KiCad,Pcbnew,8.0.5*%
%TF.CreationDate,2024-10-05T21:15:03+02:00*%
%TF.ProjectId,XC9148-breakout,58433931-3438-42d6-9272-65616b6f7574,rev?*%
%TF.SameCoordinates,Original*%
%TF.FileFunction,Drillmap*%
%TF.FilePolarity,Positive*%
%FSLAX45Y45*%
G04 Gerber Fmt 4.5, Leading zero omitted, Abs format (unit mm)*
G04 Created by KiCad (PCBNEW 8.0.5) date 2024-10-05 21:15:03*
%MOMM*%
%LPD*%
G01*
G04 APERTURE LIST*
%ADD10C,0.050000*%
%ADD11C,0.200000*%
G04 APERTURE END LIST*
D10*
X9567000Y-5231000D02*
X11889000Y-5231000D01*
X11939000Y-6852000D02*
G75*
G02*
X11889000Y-6902000I-50000J0D01*
G01*
X11939000Y-5281000D02*
X11939000Y-6852000D01*
X9567000Y-6902000D02*
G75*
G02*
X9517000Y-6852000I0J50000D01*
G01*
X11889000Y-5231000D02*
G75*
G02*
X11939000Y-5281000I0J-50000D01*
G01*
X11889000Y-6902000D02*
X9567000Y-6902000D01*
X9517000Y-5281000D02*
G75*
G02*
X9567000Y-5231000I50000J0D01*
G01*
X9517000Y-6852000D02*
X9517000Y-5281000D01*
D11*
X9775277Y-7215984D02*
X9775277Y-7015984D01*
X9775277Y-7015984D02*
X9822896Y-7015984D01*
X9822896Y-7015984D02*
X9851467Y-7025508D01*
X9851467Y-7025508D02*
X9870515Y-7044555D01*
X9870515Y-7044555D02*
X9880039Y-7063603D01*
X9880039Y-7063603D02*
X9889563Y-7101698D01*
X9889563Y-7101698D02*
X9889563Y-7130269D01*
X9889563Y-7130269D02*
X9880039Y-7168365D01*
X9880039Y-7168365D02*
X9870515Y-7187412D01*
X9870515Y-7187412D02*
X9851467Y-7206460D01*
X9851467Y-7206460D02*
X9822896Y-7215984D01*
X9822896Y-7215984D02*
X9775277Y-7215984D01*
X9975277Y-7215984D02*
X9975277Y-7082650D01*
X9975277Y-7120746D02*
X9984801Y-7101698D01*
X9984801Y-7101698D02*
X9994324Y-7092174D01*
X9994324Y-7092174D02*
X10013372Y-7082650D01*
X10013372Y-7082650D02*
X10032420Y-7082650D01*
X10099086Y-7215984D02*
X10099086Y-7082650D01*
X10099086Y-7015984D02*
X10089563Y-7025508D01*
X10089563Y-7025508D02*
X10099086Y-7035031D01*
X10099086Y-7035031D02*
X10108610Y-7025508D01*
X10108610Y-7025508D02*
X10099086Y-7015984D01*
X10099086Y-7015984D02*
X10099086Y-7035031D01*
X10222896Y-7215984D02*
X10203848Y-7206460D01*
X10203848Y-7206460D02*
X10194324Y-7187412D01*
X10194324Y-7187412D02*
X10194324Y-7015984D01*
X10327658Y-7215984D02*
X10308610Y-7206460D01*
X10308610Y-7206460D02*
X10299086Y-7187412D01*
X10299086Y-7187412D02*
X10299086Y-7015984D01*
X10556229Y-7215984D02*
X10556229Y-7015984D01*
X10556229Y-7015984D02*
X10622896Y-7158841D01*
X10622896Y-7158841D02*
X10689563Y-7015984D01*
X10689563Y-7015984D02*
X10689563Y-7215984D01*
X10870515Y-7215984D02*
X10870515Y-7111222D01*
X10870515Y-7111222D02*
X10860991Y-7092174D01*
X10860991Y-7092174D02*
X10841944Y-7082650D01*
X10841944Y-7082650D02*
X10803848Y-7082650D01*
X10803848Y-7082650D02*
X10784801Y-7092174D01*
X10870515Y-7206460D02*
X10851467Y-7215984D01*
X10851467Y-7215984D02*
X10803848Y-7215984D01*
X10803848Y-7215984D02*
X10784801Y-7206460D01*
X10784801Y-7206460D02*
X10775277Y-7187412D01*
X10775277Y-7187412D02*
X10775277Y-7168365D01*
X10775277Y-7168365D02*
X10784801Y-7149317D01*
X10784801Y-7149317D02*
X10803848Y-7139793D01*
X10803848Y-7139793D02*
X10851467Y-7139793D01*
X10851467Y-7139793D02*
X10870515Y-7130269D01*
X10965753Y-7082650D02*
X10965753Y-7282650D01*
X10965753Y-7092174D02*
X10984801Y-7082650D01*
X10984801Y-7082650D02*
X11022896Y-7082650D01*
X11022896Y-7082650D02*
X11041944Y-7092174D01*
X11041944Y-7092174D02*
X11051467Y-7101698D01*
X11051467Y-7101698D02*
X11060991Y-7120746D01*
X11060991Y-7120746D02*
X11060991Y-7177888D01*
X11060991Y-7177888D02*
X11051467Y-7196936D01*
X11051467Y-7196936D02*
X11041944Y-7206460D01*
X11041944Y-7206460D02*
X11022896Y-7215984D01*
X11022896Y-7215984D02*
X10984801Y-7215984D01*
X10984801Y-7215984D02*
X10965753Y-7206460D01*
X11146705Y-7196936D02*
X11156229Y-7206460D01*
X11156229Y-7206460D02*
X11146705Y-7215984D01*
X11146705Y-7215984D02*
X11137182Y-7206460D01*
X11137182Y-7206460D02*
X11146705Y-7196936D01*
X11146705Y-7196936D02*
X11146705Y-7215984D01*
X11146705Y-7092174D02*
X11156229Y-7101698D01*
X11156229Y-7101698D02*
X11146705Y-7111222D01*
X11146705Y-7111222D02*
X11137182Y-7101698D01*
X11137182Y-7101698D02*
X11146705Y-7092174D01*
X11146705Y-7092174D02*
X11146705Y-7111222D01*
M02*
