G04 #@! TF.GenerationSoftware,KiCad,Pcbnew,8.0.5*
G04 #@! TF.CreationDate,2024-09-21T11:01:10+02:00*
G04 #@! TF.ProjectId,XC9148-breakout,58433931-3438-42d6-9272-65616b6f7574,rev?*
G04 #@! TF.SameCoordinates,Original*
G04 #@! TF.FileFunction,Legend,Top*
G04 #@! TF.FilePolarity,Positive*
%FSLAX46Y46*%
G04 Gerber Fmt 4.6, Leading zero omitted, Abs format (unit mm)*
G04 Created by KiCad (PCBNEW 8.0.5) date 2024-09-21 11:01:10*
%MOMM*%
%LPD*%
G01*
G04 APERTURE LIST*
G04 Aperture macros list*
%AMRoundRect*
0 Rectangle with rounded corners*
0 $1 Rounding radius*
0 $2 $3 $4 $5 $6 $7 $8 $9 X,Y pos of 4 corners*
0 Add a 4 corners polygon primitive as box body*
4,1,4,$2,$3,$4,$5,$6,$7,$8,$9,$2,$3,0*
0 Add four circle primitives for the rounded corners*
1,1,$1+$1,$2,$3*
1,1,$1+$1,$4,$5*
1,1,$1+$1,$6,$7*
1,1,$1+$1,$8,$9*
0 Add four rect primitives between the rounded corners*
20,1,$1+$1,$2,$3,$4,$5,0*
20,1,$1+$1,$4,$5,$6,$7,0*
20,1,$1+$1,$6,$7,$8,$9,0*
20,1,$1+$1,$8,$9,$2,$3,0*%
G04 Aperture macros list end*
%ADD10C,0.200000*%
%ADD11C,0.100000*%
%ADD12C,0.000100*%
%ADD13C,0.300000*%
%ADD14C,0.187500*%
%ADD15C,0.120000*%
%ADD16C,1.700000*%
%ADD17R,1.700000X1.700000*%
%ADD18O,1.700000X1.700000*%
%ADD19RoundRect,0.250001X0.462499X0.849999X-0.462499X0.849999X-0.462499X-0.849999X0.462499X-0.849999X0*%
%ADD20RoundRect,0.237500X0.237500X-0.300000X0.237500X0.300000X-0.237500X0.300000X-0.237500X-0.300000X0*%
%ADD21RoundRect,0.237500X-0.300000X-0.237500X0.300000X-0.237500X0.300000X0.237500X-0.300000X0.237500X0*%
%ADD22R,0.350000X0.450000*%
%ADD23R,0.250000X0.450000*%
%ADD24R,1.600000X1.000000*%
%ADD25R,0.100000X0.900000*%
G04 APERTURE END LIST*
D10*
G36*
X101140437Y-57667024D02*
G01*
X101165106Y-57691692D01*
X101194911Y-57751302D01*
X101194911Y-57942183D01*
X101165106Y-58001792D01*
X101140437Y-58026460D01*
X101080828Y-58056266D01*
X100937566Y-58056266D01*
X100877956Y-58026461D01*
X100853288Y-58001792D01*
X100823483Y-57942182D01*
X100823483Y-57751302D01*
X100853288Y-57691692D01*
X100877956Y-57667023D01*
X100937566Y-57637219D01*
X101080828Y-57637219D01*
X101140437Y-57667024D01*
G37*
G36*
X103997580Y-58095595D02*
G01*
X104022249Y-58120263D01*
X104052054Y-58179873D01*
X104052054Y-58323135D01*
X104022249Y-58382743D01*
X103997580Y-58407413D01*
X103937971Y-58437219D01*
X103794709Y-58437219D01*
X103735099Y-58407414D01*
X103710432Y-58382746D01*
X103680626Y-58323134D01*
X103680626Y-58179873D01*
X103710431Y-58120263D01*
X103735099Y-58095594D01*
X103794709Y-58065790D01*
X103937971Y-58065790D01*
X103997580Y-58095595D01*
G37*
G36*
X103997580Y-57667024D02*
G01*
X104022249Y-57691692D01*
X104052054Y-57751302D01*
X104052054Y-57751707D01*
X104022249Y-57811316D01*
X103997580Y-57835984D01*
X103937971Y-57865790D01*
X103794709Y-57865790D01*
X103735099Y-57835985D01*
X103710431Y-57811316D01*
X103680626Y-57751706D01*
X103680626Y-57751302D01*
X103710431Y-57691692D01*
X103735099Y-57667023D01*
X103794709Y-57637219D01*
X103937971Y-57637219D01*
X103997580Y-57667024D01*
G37*
G36*
X104363165Y-58748330D02*
G01*
X98512372Y-58748330D01*
X98512372Y-57537114D01*
X98623483Y-57537114D01*
X98631055Y-57575391D01*
X98640278Y-57592689D01*
X98936631Y-58037219D01*
X98640278Y-58481749D01*
X98631055Y-58499047D01*
X98623483Y-58537324D01*
X98631135Y-58575584D01*
X98652846Y-58608004D01*
X98685311Y-58629647D01*
X98723588Y-58637219D01*
X98761848Y-58629567D01*
X98794268Y-58607856D01*
X98806688Y-58592689D01*
X99056816Y-58217496D01*
X99306944Y-58592689D01*
X99319364Y-58607856D01*
X99351784Y-58629567D01*
X99390044Y-58637219D01*
X99428321Y-58629647D01*
X99460786Y-58608004D01*
X99482497Y-58575584D01*
X99490149Y-58537324D01*
X99482577Y-58499047D01*
X99473354Y-58481749D01*
X99177000Y-58037219D01*
X99224619Y-57965790D01*
X99623483Y-57965790D01*
X99623483Y-58108647D01*
X99623818Y-58112049D01*
X99623601Y-58113508D01*
X99624680Y-58120805D01*
X99625404Y-58128156D01*
X99625968Y-58129519D01*
X99626469Y-58132901D01*
X99674088Y-58323376D01*
X99674601Y-58324813D01*
X99674653Y-58325536D01*
X99677761Y-58333660D01*
X99680683Y-58341837D01*
X99681113Y-58342417D01*
X99681659Y-58343844D01*
X99729278Y-58439082D01*
X99734560Y-58447474D01*
X99735573Y-58449918D01*
X99737829Y-58452667D01*
X99739721Y-58455672D01*
X99741715Y-58457401D01*
X99748010Y-58465071D01*
X99843248Y-58560311D01*
X99858401Y-58572747D01*
X99861720Y-58574122D01*
X99864436Y-58576477D01*
X99882336Y-58584468D01*
X100025193Y-58632087D01*
X100034865Y-58634286D01*
X100037307Y-58635298D01*
X100040844Y-58635646D01*
X100044308Y-58636434D01*
X100046942Y-58636246D01*
X100056816Y-58637219D01*
X100152054Y-58637219D01*
X100161927Y-58636246D01*
X100164561Y-58636434D01*
X100168024Y-58635646D01*
X100171563Y-58635298D01*
X100174005Y-58634286D01*
X100183677Y-58632087D01*
X100326533Y-58584468D01*
X100344434Y-58576477D01*
X100347149Y-58574122D01*
X100350469Y-58572747D01*
X100365622Y-58560310D01*
X100413241Y-58512690D01*
X100425678Y-58497537D01*
X100440609Y-58461488D01*
X100440608Y-58422470D01*
X100425677Y-58386422D01*
X100398086Y-58358832D01*
X100362038Y-58343901D01*
X100323020Y-58343902D01*
X100286972Y-58358833D01*
X100271818Y-58371270D01*
X100240891Y-58402197D01*
X100135827Y-58437219D01*
X100073042Y-58437219D01*
X99967977Y-58402197D01*
X99900907Y-58335127D01*
X99865453Y-58264218D01*
X99823483Y-58096337D01*
X99823483Y-57978100D01*
X99865453Y-57810218D01*
X99900906Y-57739312D01*
X99967978Y-57672240D01*
X100073042Y-57637219D01*
X100135827Y-57637219D01*
X100240892Y-57672240D01*
X100271819Y-57703167D01*
X100286972Y-57715604D01*
X100323021Y-57730535D01*
X100362039Y-57730535D01*
X100368896Y-57727695D01*
X100623483Y-57727695D01*
X100623483Y-57965790D01*
X100625404Y-57985299D01*
X100626779Y-57988619D01*
X100627034Y-57992203D01*
X100634040Y-58010511D01*
X100681659Y-58105749D01*
X100686944Y-58114145D01*
X100687955Y-58116585D01*
X100690208Y-58119331D01*
X100692102Y-58122339D01*
X100694096Y-58124068D01*
X100700391Y-58131739D01*
X100748010Y-58179357D01*
X100755676Y-58185649D01*
X100757409Y-58187647D01*
X100760417Y-58189540D01*
X100763163Y-58191794D01*
X100765603Y-58192804D01*
X100774000Y-58198090D01*
X100869237Y-58245709D01*
X100887546Y-58252715D01*
X100891129Y-58252969D01*
X100894450Y-58254345D01*
X100913959Y-58256266D01*
X101104435Y-58256266D01*
X101123944Y-58254345D01*
X101127264Y-58252969D01*
X101130848Y-58252715D01*
X101149156Y-58245709D01*
X101158769Y-58240902D01*
X101154479Y-58258064D01*
X101074342Y-58378269D01*
X101045199Y-58407413D01*
X100985590Y-58437219D01*
X100818721Y-58437219D01*
X100799212Y-58439140D01*
X100763164Y-58454072D01*
X100735574Y-58481662D01*
X100720642Y-58517710D01*
X100720642Y-58556728D01*
X100735574Y-58592776D01*
X100763164Y-58620366D01*
X100799212Y-58635298D01*
X100818721Y-58637219D01*
X101009197Y-58637219D01*
X101028706Y-58635298D01*
X101032026Y-58633922D01*
X101035610Y-58633668D01*
X101053918Y-58626662D01*
X101149156Y-58579043D01*
X101157551Y-58573758D01*
X101159993Y-58572747D01*
X101162740Y-58570491D01*
X101165746Y-58568600D01*
X101167476Y-58566605D01*
X101175146Y-58560310D01*
X101222765Y-58512690D01*
X101222807Y-58512637D01*
X101222839Y-58512617D01*
X101228978Y-58505119D01*
X101235202Y-58497537D01*
X101235216Y-58497501D01*
X101235259Y-58497450D01*
X101330497Y-58354593D01*
X101336239Y-58343823D01*
X101337711Y-58341837D01*
X101338549Y-58339491D01*
X101339720Y-58337295D01*
X101340199Y-58334871D01*
X101344306Y-58323377D01*
X101391925Y-58132901D01*
X101392425Y-58129519D01*
X101392990Y-58128156D01*
X101393713Y-58120805D01*
X101394793Y-58113508D01*
X101394575Y-58112049D01*
X101394911Y-58108647D01*
X101394911Y-57810426D01*
X101576649Y-57810426D01*
X101579415Y-57849346D01*
X101596864Y-57884245D01*
X101626341Y-57909809D01*
X101663357Y-57922148D01*
X101702277Y-57919382D01*
X101720585Y-57912376D01*
X101815823Y-57864757D01*
X101824219Y-57859471D01*
X101826659Y-57858461D01*
X101829405Y-57856207D01*
X101832413Y-57854314D01*
X101834142Y-57852319D01*
X101841813Y-57846025D01*
X101861578Y-57826260D01*
X101861578Y-58437219D01*
X101675864Y-58437219D01*
X101656355Y-58439140D01*
X101620307Y-58454072D01*
X101592717Y-58481662D01*
X101577785Y-58517710D01*
X101577785Y-58556728D01*
X101592717Y-58592776D01*
X101620307Y-58620366D01*
X101656355Y-58635298D01*
X101675864Y-58637219D01*
X102247292Y-58637219D01*
X102266801Y-58635298D01*
X102302849Y-58620366D01*
X102330439Y-58592776D01*
X102345371Y-58556728D01*
X102345371Y-58517710D01*
X102330439Y-58481662D01*
X102302849Y-58454072D01*
X102266801Y-58439140D01*
X102247292Y-58437219D01*
X102061578Y-58437219D01*
X102061578Y-58191378D01*
X102529030Y-58191378D01*
X102530166Y-58207362D01*
X102530166Y-58223394D01*
X102531541Y-58226714D01*
X102531796Y-58230298D01*
X102538963Y-58244633D01*
X102545098Y-58259442D01*
X102547638Y-58261982D01*
X102549246Y-58265197D01*
X102561357Y-58275701D01*
X102572688Y-58287032D01*
X102576006Y-58288406D01*
X102578722Y-58290762D01*
X102593931Y-58295831D01*
X102608736Y-58301964D01*
X102613836Y-58302466D01*
X102615738Y-58303100D01*
X102618371Y-58302912D01*
X102628245Y-58303885D01*
X103004435Y-58303885D01*
X103004435Y-58537219D01*
X103006356Y-58556728D01*
X103021288Y-58592776D01*
X103048878Y-58620366D01*
X103084926Y-58635298D01*
X103123944Y-58635298D01*
X103159992Y-58620366D01*
X103187582Y-58592776D01*
X103202514Y-58556728D01*
X103204435Y-58537219D01*
X103204435Y-58303885D01*
X103247292Y-58303885D01*
X103266801Y-58301964D01*
X103302849Y-58287032D01*
X103330439Y-58259442D01*
X103345371Y-58223394D01*
X103345371Y-58184376D01*
X103330439Y-58148328D01*
X103302849Y-58120738D01*
X103266801Y-58105806D01*
X103247292Y-58103885D01*
X103204435Y-58103885D01*
X103204435Y-57870552D01*
X103202514Y-57851043D01*
X103187582Y-57814995D01*
X103159992Y-57787405D01*
X103123944Y-57772473D01*
X103084926Y-57772473D01*
X103048878Y-57787405D01*
X103021288Y-57814995D01*
X103006356Y-57851043D01*
X103004435Y-57870552D01*
X103004435Y-58103885D01*
X102766987Y-58103885D01*
X102892384Y-57727695D01*
X103480626Y-57727695D01*
X103480626Y-57775314D01*
X103482547Y-57794823D01*
X103483922Y-57798143D01*
X103484177Y-57801727D01*
X103491183Y-57820035D01*
X103538802Y-57915273D01*
X103544087Y-57923669D01*
X103545098Y-57926109D01*
X103547351Y-57928855D01*
X103549245Y-57931863D01*
X103551239Y-57933592D01*
X103557534Y-57941263D01*
X103582061Y-57965790D01*
X103557534Y-57990317D01*
X103551239Y-57997987D01*
X103549245Y-57999717D01*
X103547351Y-58002724D01*
X103545098Y-58005471D01*
X103544087Y-58007910D01*
X103538802Y-58016307D01*
X103491183Y-58111545D01*
X103484177Y-58129853D01*
X103483922Y-58133436D01*
X103482547Y-58136757D01*
X103480626Y-58156266D01*
X103480626Y-58346742D01*
X103482547Y-58366251D01*
X103483922Y-58369571D01*
X103484177Y-58373155D01*
X103491183Y-58391463D01*
X103538802Y-58486701D01*
X103544085Y-58495093D01*
X103545097Y-58497537D01*
X103547353Y-58500286D01*
X103549245Y-58503291D01*
X103551239Y-58505020D01*
X103557534Y-58512690D01*
X103605152Y-58560310D01*
X103612820Y-58566603D01*
X103614552Y-58568600D01*
X103617560Y-58570493D01*
X103620306Y-58572747D01*
X103622746Y-58573757D01*
X103631143Y-58579043D01*
X103726380Y-58626662D01*
X103744689Y-58633668D01*
X103748272Y-58633922D01*
X103751593Y-58635298D01*
X103771102Y-58637219D01*
X103961578Y-58637219D01*
X103981087Y-58635298D01*
X103984407Y-58633922D01*
X103987991Y-58633668D01*
X104006299Y-58626662D01*
X104101537Y-58579043D01*
X104109932Y-58573758D01*
X104112374Y-58572747D01*
X104115121Y-58570491D01*
X104118127Y-58568600D01*
X104119857Y-58566605D01*
X104127527Y-58560310D01*
X104175146Y-58512690D01*
X104181438Y-58505023D01*
X104183435Y-58503292D01*
X104185328Y-58500284D01*
X104187583Y-58497537D01*
X104188594Y-58495095D01*
X104193878Y-58486701D01*
X104241497Y-58391464D01*
X104248503Y-58373155D01*
X104248757Y-58369571D01*
X104250133Y-58366251D01*
X104252054Y-58346742D01*
X104252054Y-58156266D01*
X104250133Y-58136757D01*
X104248757Y-58133436D01*
X104248503Y-58129853D01*
X104241497Y-58111544D01*
X104193878Y-58016307D01*
X104188592Y-58007910D01*
X104187582Y-58005470D01*
X104185328Y-58002724D01*
X104183435Y-57999716D01*
X104181437Y-57997983D01*
X104175145Y-57990317D01*
X104150618Y-57965790D01*
X104175145Y-57941263D01*
X104181437Y-57933596D01*
X104183435Y-57931864D01*
X104185328Y-57928855D01*
X104187582Y-57926110D01*
X104188592Y-57923669D01*
X104193878Y-57915273D01*
X104241497Y-57820036D01*
X104248503Y-57801727D01*
X104248757Y-57798143D01*
X104250133Y-57794823D01*
X104252054Y-57775314D01*
X104252054Y-57727695D01*
X104250133Y-57708186D01*
X104248757Y-57704865D01*
X104248503Y-57701282D01*
X104241497Y-57682973D01*
X104193878Y-57587736D01*
X104188592Y-57579339D01*
X104187582Y-57576899D01*
X104185328Y-57574153D01*
X104183435Y-57571145D01*
X104181437Y-57569412D01*
X104175145Y-57561746D01*
X104127527Y-57514127D01*
X104119856Y-57507832D01*
X104118127Y-57505838D01*
X104115119Y-57503944D01*
X104112373Y-57501691D01*
X104109933Y-57500680D01*
X104101537Y-57495395D01*
X104006299Y-57447776D01*
X103987991Y-57440770D01*
X103984407Y-57440515D01*
X103981087Y-57439140D01*
X103961578Y-57437219D01*
X103771102Y-57437219D01*
X103751593Y-57439140D01*
X103748272Y-57440515D01*
X103744689Y-57440770D01*
X103726380Y-57447776D01*
X103631143Y-57495395D01*
X103622746Y-57500680D01*
X103620306Y-57501691D01*
X103617560Y-57503944D01*
X103614552Y-57505838D01*
X103612819Y-57507835D01*
X103605153Y-57514128D01*
X103557534Y-57561746D01*
X103551239Y-57569416D01*
X103549245Y-57571146D01*
X103547351Y-57574153D01*
X103545098Y-57576900D01*
X103544087Y-57579339D01*
X103538802Y-57587736D01*
X103491183Y-57682974D01*
X103484177Y-57701282D01*
X103483922Y-57704865D01*
X103482547Y-57708186D01*
X103480626Y-57727695D01*
X102892384Y-57727695D01*
X102961208Y-57521223D01*
X102965555Y-57502108D01*
X102962789Y-57463188D01*
X102945339Y-57428289D01*
X102915863Y-57402724D01*
X102878847Y-57390385D01*
X102839927Y-57393152D01*
X102805028Y-57410601D01*
X102779463Y-57440077D01*
X102771472Y-57457978D01*
X102533377Y-58172262D01*
X102531177Y-58181933D01*
X102530166Y-58184376D01*
X102530166Y-58186382D01*
X102529030Y-58191378D01*
X102061578Y-58191378D01*
X102061578Y-57537219D01*
X102061571Y-57537148D01*
X102061578Y-57537114D01*
X102061557Y-57537012D01*
X102059657Y-57517710D01*
X102055867Y-57508561D01*
X102053926Y-57498854D01*
X102048474Y-57490713D01*
X102044725Y-57481662D01*
X102037725Y-57474662D01*
X102032215Y-57466434D01*
X102024060Y-57460997D01*
X102017135Y-57454072D01*
X102007991Y-57450284D01*
X101999750Y-57444790D01*
X101990136Y-57442888D01*
X101981087Y-57439140D01*
X101971186Y-57439140D01*
X101961474Y-57437219D01*
X101951869Y-57439140D01*
X101942069Y-57439140D01*
X101932920Y-57442929D01*
X101923213Y-57444871D01*
X101915072Y-57450322D01*
X101906021Y-57454072D01*
X101899021Y-57461071D01*
X101890793Y-57466582D01*
X101878504Y-57481588D01*
X101878431Y-57481662D01*
X101878417Y-57481694D01*
X101878373Y-57481749D01*
X101788629Y-57616365D01*
X101711865Y-57693128D01*
X101631143Y-57733490D01*
X101614552Y-57743933D01*
X101588988Y-57773410D01*
X101576649Y-57810426D01*
X101394911Y-57810426D01*
X101394911Y-57727695D01*
X101392990Y-57708186D01*
X101391614Y-57704865D01*
X101391360Y-57701282D01*
X101384354Y-57682973D01*
X101336735Y-57587736D01*
X101331449Y-57579339D01*
X101330439Y-57576899D01*
X101328185Y-57574153D01*
X101326292Y-57571145D01*
X101324294Y-57569412D01*
X101318002Y-57561746D01*
X101270384Y-57514127D01*
X101262713Y-57507832D01*
X101260984Y-57505838D01*
X101257976Y-57503944D01*
X101255230Y-57501691D01*
X101252790Y-57500680D01*
X101244394Y-57495395D01*
X101149156Y-57447776D01*
X101130848Y-57440770D01*
X101127264Y-57440515D01*
X101123944Y-57439140D01*
X101104435Y-57437219D01*
X100913959Y-57437219D01*
X100894450Y-57439140D01*
X100891129Y-57440515D01*
X100887546Y-57440770D01*
X100869237Y-57447776D01*
X100774000Y-57495395D01*
X100765603Y-57500680D01*
X100763163Y-57501691D01*
X100760417Y-57503944D01*
X100757409Y-57505838D01*
X100755676Y-57507835D01*
X100748010Y-57514128D01*
X100700391Y-57561746D01*
X100694096Y-57569416D01*
X100692102Y-57571146D01*
X100690208Y-57574153D01*
X100687955Y-57576900D01*
X100686944Y-57579339D01*
X100681659Y-57587736D01*
X100634040Y-57682974D01*
X100627034Y-57701282D01*
X100626779Y-57704865D01*
X100625404Y-57708186D01*
X100623483Y-57727695D01*
X100368896Y-57727695D01*
X100398087Y-57715604D01*
X100425677Y-57688014D01*
X100440608Y-57651966D01*
X100440608Y-57612948D01*
X100425677Y-57576899D01*
X100413240Y-57561746D01*
X100365622Y-57514127D01*
X100350468Y-57501691D01*
X100347149Y-57500316D01*
X100344434Y-57497961D01*
X100326533Y-57489970D01*
X100183677Y-57442351D01*
X100174005Y-57440151D01*
X100171563Y-57439140D01*
X100168024Y-57438791D01*
X100164561Y-57438004D01*
X100161927Y-57438191D01*
X100152054Y-57437219D01*
X100056816Y-57437219D01*
X100046942Y-57438191D01*
X100044308Y-57438004D01*
X100040844Y-57438791D01*
X100037307Y-57439140D01*
X100034865Y-57440151D01*
X100025193Y-57442351D01*
X99882336Y-57489970D01*
X99864436Y-57497961D01*
X99861720Y-57500316D01*
X99858402Y-57501691D01*
X99843248Y-57514127D01*
X99748010Y-57609365D01*
X99741715Y-57617035D01*
X99739721Y-57618765D01*
X99737827Y-57621772D01*
X99735574Y-57624519D01*
X99734563Y-57626958D01*
X99729278Y-57635355D01*
X99681659Y-57730593D01*
X99681113Y-57732019D01*
X99680683Y-57732600D01*
X99677761Y-57740776D01*
X99674653Y-57748901D01*
X99674601Y-57749623D01*
X99674088Y-57751061D01*
X99626469Y-57941536D01*
X99625968Y-57944917D01*
X99625404Y-57946281D01*
X99624680Y-57953631D01*
X99623601Y-57960929D01*
X99623818Y-57962387D01*
X99623483Y-57965790D01*
X99224619Y-57965790D01*
X99473354Y-57592689D01*
X99482577Y-57575391D01*
X99490149Y-57537114D01*
X99482497Y-57498854D01*
X99460786Y-57466434D01*
X99428321Y-57444791D01*
X99390044Y-57437219D01*
X99351784Y-57444871D01*
X99319364Y-57466582D01*
X99306944Y-57481749D01*
X99056816Y-57856941D01*
X98806688Y-57481749D01*
X98794268Y-57466582D01*
X98761848Y-57444871D01*
X98723588Y-57437219D01*
X98685311Y-57444791D01*
X98652846Y-57466434D01*
X98631135Y-57498854D01*
X98623483Y-57537114D01*
X98512372Y-57537114D01*
X98512372Y-57279274D01*
X104363165Y-57279274D01*
X104363165Y-58748330D01*
G37*
D11*
X96160000Y-58790000D02*
X106900000Y-58790000D01*
X106900000Y-66570000D01*
X96160000Y-66570000D01*
X96160000Y-58790000D01*
D12*
X108635000Y-65180000D02*
X110825000Y-65180000D01*
X110825000Y-68455000D01*
X108635000Y-68455000D01*
X108635000Y-65180000D01*
G36*
X108635000Y-65180000D02*
G01*
X110825000Y-65180000D01*
X110825000Y-68455000D01*
X108635000Y-68455000D01*
X108635000Y-65180000D01*
G37*
X108635000Y-59710000D02*
X110825000Y-59710000D01*
X110825000Y-63085000D01*
X108635000Y-63085000D01*
X108635000Y-59710000D01*
G36*
X108635000Y-59710000D02*
G01*
X110825000Y-59710000D01*
X110825000Y-63085000D01*
X108635000Y-63085000D01*
X108635000Y-59710000D01*
G37*
X108635000Y-58190000D02*
X110825000Y-58190000D01*
X110825000Y-59135000D01*
X108635000Y-59135000D01*
X108635000Y-58190000D01*
G36*
X108635000Y-58190000D02*
G01*
X110825000Y-58190000D01*
X110825000Y-59135000D01*
X108635000Y-59135000D01*
X108635000Y-58190000D01*
G37*
X108635000Y-52860000D02*
X110825000Y-52860000D01*
X110825000Y-53805000D01*
X108635000Y-53805000D01*
X108635000Y-52860000D01*
G36*
X108635000Y-52860000D02*
G01*
X110825000Y-52860000D01*
X110825000Y-53805000D01*
X108635000Y-53805000D01*
X108635000Y-52860000D01*
G37*
D13*
G36*
X110767129Y-65287514D02*
G01*
X108634527Y-65287514D01*
X108634527Y-64941583D01*
X108803710Y-64941583D01*
X108803710Y-65000111D01*
X108826108Y-65054183D01*
X108867492Y-65095567D01*
X108921564Y-65117965D01*
X108950828Y-65120847D01*
X110450828Y-65120847D01*
X110480092Y-65117965D01*
X110534164Y-65095567D01*
X110575548Y-65054183D01*
X110597946Y-65000111D01*
X110597946Y-64941583D01*
X110575548Y-64887511D01*
X110534164Y-64846127D01*
X110480092Y-64823729D01*
X110450828Y-64820847D01*
X108950828Y-64820847D01*
X108921564Y-64823729D01*
X108867492Y-64846127D01*
X108826108Y-64887511D01*
X108803710Y-64941583D01*
X108634527Y-64941583D01*
X108634527Y-64246084D01*
X108801194Y-64246084D01*
X108803710Y-64265875D01*
X108803710Y-64285825D01*
X108807369Y-64294658D01*
X108808575Y-64304144D01*
X108818473Y-64321466D01*
X108826108Y-64339897D01*
X108832868Y-64346657D01*
X108837613Y-64354960D01*
X108853384Y-64367173D01*
X108867492Y-64381281D01*
X108876327Y-64384940D01*
X108883887Y-64390795D01*
X108903131Y-64396043D01*
X108921564Y-64403679D01*
X108936530Y-64405152D01*
X108940351Y-64406195D01*
X108943302Y-64405819D01*
X108950828Y-64406561D01*
X110450828Y-64406561D01*
X110480092Y-64403679D01*
X110534164Y-64381281D01*
X110575548Y-64339897D01*
X110597946Y-64285825D01*
X110597946Y-64227297D01*
X110575548Y-64173225D01*
X110534164Y-64131841D01*
X110480092Y-64109443D01*
X110450828Y-64106561D01*
X109515662Y-64106561D01*
X110525249Y-63529654D01*
X110531416Y-63525276D01*
X110534164Y-63524138D01*
X110536963Y-63521338D01*
X110549227Y-63512633D01*
X110561442Y-63496859D01*
X110575548Y-63482754D01*
X110579206Y-63473920D01*
X110585063Y-63466359D01*
X110590312Y-63447110D01*
X110597946Y-63428682D01*
X110597946Y-63419120D01*
X110600462Y-63409895D01*
X110597946Y-63390103D01*
X110597946Y-63370154D01*
X110594286Y-63361320D01*
X110593081Y-63351835D01*
X110583182Y-63334512D01*
X110575548Y-63316082D01*
X110568787Y-63309321D01*
X110564043Y-63301019D01*
X110548271Y-63288805D01*
X110534164Y-63274698D01*
X110525328Y-63271038D01*
X110517769Y-63265184D01*
X110498524Y-63259935D01*
X110480092Y-63252300D01*
X110465127Y-63250826D01*
X110461306Y-63249784D01*
X110458354Y-63250159D01*
X110450828Y-63249418D01*
X108950828Y-63249418D01*
X108921564Y-63252300D01*
X108867492Y-63274698D01*
X108826108Y-63316082D01*
X108803710Y-63370154D01*
X108803710Y-63428682D01*
X108826108Y-63482754D01*
X108867492Y-63524138D01*
X108921564Y-63546536D01*
X108950828Y-63549418D01*
X109885993Y-63549418D01*
X108876407Y-64126325D01*
X108870239Y-64130702D01*
X108867492Y-64131841D01*
X108864692Y-64134640D01*
X108852429Y-64143346D01*
X108840215Y-64159117D01*
X108826108Y-64173225D01*
X108822448Y-64182060D01*
X108816594Y-64189620D01*
X108811345Y-64208864D01*
X108803710Y-64227297D01*
X108803710Y-64236859D01*
X108801194Y-64246084D01*
X108634527Y-64246084D01*
X108634527Y-63082751D01*
X110767129Y-63082751D01*
X110767129Y-65287514D01*
G37*
G36*
X110159854Y-57161648D02*
G01*
X110256121Y-57257915D01*
X110300828Y-57347327D01*
X110300828Y-57562222D01*
X110256122Y-57651635D01*
X110159854Y-57747902D01*
X109932364Y-57804775D01*
X109469292Y-57804775D01*
X109241801Y-57747902D01*
X109145535Y-57651636D01*
X109100828Y-57562222D01*
X109100828Y-57347328D01*
X109145535Y-57257914D01*
X109241801Y-57161648D01*
X109469292Y-57104775D01*
X109932363Y-57104775D01*
X110159854Y-57161648D01*
G37*
G36*
X110767495Y-58271442D02*
G01*
X108634161Y-58271442D01*
X108634161Y-57311918D01*
X108800828Y-57311918D01*
X108800828Y-57597632D01*
X108803710Y-57626896D01*
X108805771Y-57631873D01*
X108806154Y-57637251D01*
X108816664Y-57664714D01*
X108888093Y-57807572D01*
X108896020Y-57820165D01*
X108897536Y-57823825D01*
X108900917Y-57827944D01*
X108903758Y-57832458D01*
X108906751Y-57835054D01*
X108916191Y-57846556D01*
X109059048Y-57989413D01*
X109081778Y-58008068D01*
X109092083Y-58012336D01*
X109101043Y-58018975D01*
X109128734Y-58028868D01*
X109414448Y-58100296D01*
X109419519Y-58101045D01*
X109421564Y-58101893D01*
X109432586Y-58102978D01*
X109443537Y-58104598D01*
X109445724Y-58104272D01*
X109450828Y-58104775D01*
X109950828Y-58104775D01*
X109955931Y-58104272D01*
X109958119Y-58104598D01*
X109969069Y-58102978D01*
X109980092Y-58101893D01*
X109982136Y-58101045D01*
X109987208Y-58100296D01*
X110272922Y-58028868D01*
X110300613Y-58018975D01*
X110309573Y-58012335D01*
X110319877Y-58008068D01*
X110342608Y-57989413D01*
X110485466Y-57846556D01*
X110494906Y-57835052D01*
X110497900Y-57832457D01*
X110500738Y-57827947D01*
X110504121Y-57823826D01*
X110505638Y-57820163D01*
X110513564Y-57807571D01*
X110584993Y-57664713D01*
X110595502Y-57637250D01*
X110595883Y-57631874D01*
X110597946Y-57626896D01*
X110600828Y-57597632D01*
X110600828Y-57311918D01*
X110597946Y-57282654D01*
X110595883Y-57277675D01*
X110595502Y-57272300D01*
X110584992Y-57244837D01*
X110513564Y-57101979D01*
X110505638Y-57089388D01*
X110504121Y-57085725D01*
X110500735Y-57081599D01*
X110497899Y-57077094D01*
X110494909Y-57074501D01*
X110485466Y-57062995D01*
X110342608Y-56920138D01*
X110319877Y-56901483D01*
X110309573Y-56897215D01*
X110300613Y-56890576D01*
X110272922Y-56880683D01*
X109987209Y-56809254D01*
X109982136Y-56808503D01*
X109980092Y-56807657D01*
X109969070Y-56806571D01*
X109958119Y-56804952D01*
X109955931Y-56805277D01*
X109950828Y-56804775D01*
X109450828Y-56804775D01*
X109445724Y-56805277D01*
X109443536Y-56804952D01*
X109432583Y-56806571D01*
X109421564Y-56807657D01*
X109419519Y-56808503D01*
X109414447Y-56809254D01*
X109128733Y-56880683D01*
X109101042Y-56890576D01*
X109092081Y-56897215D01*
X109081778Y-56901483D01*
X109059048Y-56920138D01*
X108916191Y-57062995D01*
X108906751Y-57074496D01*
X108903758Y-57077093D01*
X108900917Y-57081606D01*
X108897536Y-57085726D01*
X108896020Y-57089385D01*
X108888093Y-57101979D01*
X108816664Y-57244836D01*
X108806155Y-57272299D01*
X108805773Y-57277673D01*
X108803710Y-57282654D01*
X108800828Y-57311918D01*
X108634161Y-57311918D01*
X108634161Y-55425511D01*
X108803710Y-55425511D01*
X108803710Y-55484039D01*
X108826108Y-55538111D01*
X108867492Y-55579495D01*
X108921564Y-55601893D01*
X108950828Y-55604775D01*
X110129704Y-55604775D01*
X110219116Y-55649480D01*
X110256121Y-55686485D01*
X110300828Y-55775898D01*
X110300828Y-55990793D01*
X110256122Y-56080205D01*
X110219118Y-56117210D01*
X110129704Y-56161918D01*
X108950828Y-56161918D01*
X108921564Y-56164800D01*
X108867492Y-56187198D01*
X108826108Y-56228582D01*
X108803710Y-56282654D01*
X108803710Y-56341182D01*
X108826108Y-56395254D01*
X108867492Y-56436638D01*
X108921564Y-56459036D01*
X108950828Y-56461918D01*
X110165114Y-56461918D01*
X110194378Y-56459036D01*
X110199358Y-56456972D01*
X110204733Y-56456591D01*
X110232196Y-56446082D01*
X110375053Y-56374653D01*
X110387648Y-56366724D01*
X110391305Y-56365210D01*
X110395422Y-56361830D01*
X110399939Y-56358988D01*
X110402536Y-56355993D01*
X110414036Y-56346556D01*
X110485465Y-56275128D01*
X110494904Y-56263625D01*
X110497900Y-56261028D01*
X110500741Y-56256513D01*
X110504120Y-56252397D01*
X110505635Y-56248738D01*
X110513564Y-56236142D01*
X110584993Y-56093284D01*
X110595502Y-56065821D01*
X110595883Y-56060445D01*
X110597946Y-56055467D01*
X110600828Y-56026203D01*
X110600828Y-55740489D01*
X110597946Y-55711225D01*
X110595883Y-55706246D01*
X110595502Y-55700871D01*
X110584992Y-55673408D01*
X110513564Y-55530550D01*
X110505637Y-55517958D01*
X110504121Y-55514297D01*
X110500737Y-55510174D01*
X110497899Y-55505665D01*
X110494907Y-55503070D01*
X110485466Y-55491566D01*
X110414037Y-55420137D01*
X110402535Y-55410697D01*
X110399939Y-55407704D01*
X110395425Y-55404863D01*
X110391306Y-55401482D01*
X110387646Y-55399966D01*
X110375053Y-55392039D01*
X110232196Y-55320611D01*
X110204732Y-55310101D01*
X110199356Y-55309719D01*
X110194378Y-55307657D01*
X110165114Y-55304775D01*
X108950828Y-55304775D01*
X108921564Y-55307657D01*
X108867492Y-55330055D01*
X108826108Y-55371439D01*
X108803710Y-55425511D01*
X108634161Y-55425511D01*
X108634161Y-54097632D01*
X108800828Y-54097632D01*
X108800828Y-54954774D01*
X108803710Y-54984038D01*
X108826108Y-55038110D01*
X108867492Y-55079494D01*
X108921564Y-55101892D01*
X108980092Y-55101892D01*
X109034164Y-55079494D01*
X109075548Y-55038110D01*
X109097946Y-54984038D01*
X109100828Y-54954774D01*
X109100828Y-54676203D01*
X110450828Y-54676203D01*
X110480092Y-54673321D01*
X110534164Y-54650923D01*
X110575548Y-54609539D01*
X110597946Y-54555467D01*
X110597946Y-54496939D01*
X110575548Y-54442867D01*
X110534164Y-54401483D01*
X110480092Y-54379085D01*
X110450828Y-54376203D01*
X109100828Y-54376203D01*
X109100828Y-54097632D01*
X109097946Y-54068368D01*
X109075548Y-54014296D01*
X109034164Y-53972912D01*
X108980092Y-53950514D01*
X108921564Y-53950514D01*
X108867492Y-53972912D01*
X108826108Y-54014296D01*
X108803710Y-54068368D01*
X108800828Y-54097632D01*
X108634161Y-54097632D01*
X108634161Y-53783847D01*
X110767495Y-53783847D01*
X110767495Y-58271442D01*
G37*
D11*
X110800000Y-59755000D02*
X119240000Y-59755000D01*
X119240000Y-68410000D01*
X110800000Y-68410000D01*
X110800000Y-59755000D01*
X110810000Y-52910000D02*
X119230000Y-52910000D01*
X119230000Y-59080000D01*
X110810000Y-59080000D01*
X110810000Y-52910000D01*
D14*
X112306212Y-65856678D02*
X112806212Y-67356678D01*
X112806212Y-67356678D02*
X113306212Y-65856678D01*
X113806211Y-67356678D02*
X113806211Y-65856678D01*
X114520497Y-67356678D02*
X114520497Y-65856678D01*
X114520497Y-65856678D02*
X115377640Y-67356678D01*
X115377640Y-67356678D02*
X115377640Y-65856678D01*
X112306212Y-63368107D02*
X112163355Y-63296678D01*
X112163355Y-63296678D02*
X111949069Y-63296678D01*
X111949069Y-63296678D02*
X111734783Y-63368107D01*
X111734783Y-63368107D02*
X111591926Y-63510964D01*
X111591926Y-63510964D02*
X111520497Y-63653821D01*
X111520497Y-63653821D02*
X111449069Y-63939535D01*
X111449069Y-63939535D02*
X111449069Y-64153821D01*
X111449069Y-64153821D02*
X111520497Y-64439535D01*
X111520497Y-64439535D02*
X111591926Y-64582392D01*
X111591926Y-64582392D02*
X111734783Y-64725250D01*
X111734783Y-64725250D02*
X111949069Y-64796678D01*
X111949069Y-64796678D02*
X112091926Y-64796678D01*
X112091926Y-64796678D02*
X112306212Y-64725250D01*
X112306212Y-64725250D02*
X112377640Y-64653821D01*
X112377640Y-64653821D02*
X112377640Y-64153821D01*
X112377640Y-64153821D02*
X112091926Y-64153821D01*
X113020497Y-64796678D02*
X113020497Y-63296678D01*
X113020497Y-63296678D02*
X113877640Y-64796678D01*
X113877640Y-64796678D02*
X113877640Y-63296678D01*
X114591926Y-64796678D02*
X114591926Y-63296678D01*
X114591926Y-63296678D02*
X114949069Y-63296678D01*
X114949069Y-63296678D02*
X115163355Y-63368107D01*
X115163355Y-63368107D02*
X115306212Y-63510964D01*
X115306212Y-63510964D02*
X115377641Y-63653821D01*
X115377641Y-63653821D02*
X115449069Y-63939535D01*
X115449069Y-63939535D02*
X115449069Y-64153821D01*
X115449069Y-64153821D02*
X115377641Y-64439535D01*
X115377641Y-64439535D02*
X115306212Y-64582392D01*
X115306212Y-64582392D02*
X115163355Y-64725250D01*
X115163355Y-64725250D02*
X114949069Y-64796678D01*
X114949069Y-64796678D02*
X114591926Y-64796678D01*
X113160497Y-61470964D02*
X113660497Y-61470964D01*
X113874783Y-62256678D02*
X113160497Y-62256678D01*
X113160497Y-62256678D02*
X113160497Y-60756678D01*
X113160497Y-60756678D02*
X113874783Y-60756678D01*
X114517640Y-62256678D02*
X114517640Y-60756678D01*
X114517640Y-60756678D02*
X115374783Y-62256678D01*
X115374783Y-62256678D02*
X115374783Y-60756678D01*
X113904783Y-56536678D02*
X113190497Y-56536678D01*
X113190497Y-56536678D02*
X113119069Y-57250964D01*
X113119069Y-57250964D02*
X113190497Y-57179535D01*
X113190497Y-57179535D02*
X113333355Y-57108107D01*
X113333355Y-57108107D02*
X113690497Y-57108107D01*
X113690497Y-57108107D02*
X113833355Y-57179535D01*
X113833355Y-57179535D02*
X113904783Y-57250964D01*
X113904783Y-57250964D02*
X113976212Y-57393821D01*
X113976212Y-57393821D02*
X113976212Y-57750964D01*
X113976212Y-57750964D02*
X113904783Y-57893821D01*
X113904783Y-57893821D02*
X113833355Y-57965250D01*
X113833355Y-57965250D02*
X113690497Y-58036678D01*
X113690497Y-58036678D02*
X113333355Y-58036678D01*
X113333355Y-58036678D02*
X113190497Y-57965250D01*
X113190497Y-57965250D02*
X113119069Y-57893821D01*
X114404783Y-56536678D02*
X114904783Y-58036678D01*
X114904783Y-58036678D02*
X115404783Y-56536678D01*
X112246212Y-53978107D02*
X112103355Y-53906678D01*
X112103355Y-53906678D02*
X111889069Y-53906678D01*
X111889069Y-53906678D02*
X111674783Y-53978107D01*
X111674783Y-53978107D02*
X111531926Y-54120964D01*
X111531926Y-54120964D02*
X111460497Y-54263821D01*
X111460497Y-54263821D02*
X111389069Y-54549535D01*
X111389069Y-54549535D02*
X111389069Y-54763821D01*
X111389069Y-54763821D02*
X111460497Y-55049535D01*
X111460497Y-55049535D02*
X111531926Y-55192392D01*
X111531926Y-55192392D02*
X111674783Y-55335250D01*
X111674783Y-55335250D02*
X111889069Y-55406678D01*
X111889069Y-55406678D02*
X112031926Y-55406678D01*
X112031926Y-55406678D02*
X112246212Y-55335250D01*
X112246212Y-55335250D02*
X112317640Y-55263821D01*
X112317640Y-55263821D02*
X112317640Y-54763821D01*
X112317640Y-54763821D02*
X112031926Y-54763821D01*
X112960497Y-55406678D02*
X112960497Y-53906678D01*
X112960497Y-53906678D02*
X113817640Y-55406678D01*
X113817640Y-55406678D02*
X113817640Y-53906678D01*
X114531926Y-55406678D02*
X114531926Y-53906678D01*
X114531926Y-53906678D02*
X114889069Y-53906678D01*
X114889069Y-53906678D02*
X115103355Y-53978107D01*
X115103355Y-53978107D02*
X115246212Y-54120964D01*
X115246212Y-54120964D02*
X115317641Y-54263821D01*
X115317641Y-54263821D02*
X115389069Y-54549535D01*
X115389069Y-54549535D02*
X115389069Y-54763821D01*
X115389069Y-54763821D02*
X115317641Y-55049535D01*
X115317641Y-55049535D02*
X115246212Y-55192392D01*
X115246212Y-55192392D02*
X115103355Y-55335250D01*
X115103355Y-55335250D02*
X114889069Y-55406678D01*
X114889069Y-55406678D02*
X114531926Y-55406678D01*
D15*
X100218752Y-63820000D02*
X99696248Y-63820000D01*
X100218752Y-66040000D02*
X99696248Y-66040000D01*
X105430000Y-62028767D02*
X105430000Y-61736233D01*
X106450000Y-62028767D02*
X106450000Y-61736233D01*
X97923733Y-62280000D02*
X98216267Y-62280000D01*
X97923733Y-63300000D02*
X98216267Y-63300000D01*
X103910000Y-62023767D02*
X103910000Y-61731233D01*
X104930000Y-62023767D02*
X104930000Y-61731233D01*
D11*
X102310000Y-59495000D02*
X102310000Y-59495000D01*
X102310000Y-59595000D02*
X102310000Y-59595000D01*
X102310000Y-59495000D02*
G75*
G02*
X102310000Y-59595000I0J-50000D01*
G01*
X102310000Y-59595000D02*
G75*
G02*
X102310000Y-59495000I0J50000D01*
G01*
%LPC*%
D16*
X117410000Y-66630000D03*
D17*
X117410000Y-64090000D03*
D18*
X117410000Y-61550000D03*
D16*
X117410000Y-57280000D03*
D17*
X117410000Y-54740000D03*
D19*
X101120000Y-64930000D03*
X98795000Y-64930000D03*
D20*
X105940000Y-62745000D03*
X105940000Y-61020000D03*
D21*
X97207500Y-62790000D03*
X98932500Y-62790000D03*
D20*
X104420000Y-62740000D03*
X104420000Y-61015000D03*
D22*
X102260000Y-60320000D03*
D23*
X101710000Y-60320000D03*
X101210000Y-60320000D03*
X101210000Y-62270000D03*
X101710000Y-62270000D03*
X102210000Y-62270000D03*
D24*
X101710000Y-61295000D03*
D25*
X102560000Y-61295000D03*
X100860000Y-61295000D03*
%LPD*%
M02*
